<svg xmlns="http://www.w3.org/2000/svg" width="1016" height="1016" viewBox="0 0 1016 1016"><rect width="1016" height="1016" rx="101" fill="#fff"/><path d="M144.3,498.8q-69.142,0-105.071-27.625Q3.258,443.547,3.258,390.08V285.507H233.916v40.638q0,21.565,6.611,31.272c4.381,6.48,11.465,9.733,21.172,9.733q14.954,0,21.723-10.442,6.769-10.389,6.769-34.368,0-27.114-6.428-37.883-6.414-10.743-32.138-21.172L95.316,200.06q-53.834-21.88-72.96-47.249Q3.271,127.468,3.258,83.34V21.5q0-53.165,35.968-80.594Q75.155-86.518,144.3-86.531H377.028q69.142,0,104.914,27.442Q517.713-31.621,517.726,21.5V89.925H288.8V82.632q0-19.086-7.477-28.99-7.438-9.917-21.7-9.917c-8.107,0-14.639,2.571-19.624,7.661s-7.477,11.911-7.477,20.49q0,12.514,6.769,20.332,6.769,7.792,33.869,18.916l182.018,76.764q34.748,14.954,48.64,41.871t13.9,81.46v63.909q0,63.594-34.211,93.633Q449.279,498.785,377.028,498.8Zm0,0" transform="translate(247.364 302.011)" fill="#ff1414"/></svg>