<svg width="302" height="130" xmlns="http://www.w3.org/2000/svg" zoomAndPan="magnify" preserveAspectRatio="xMidYMid meet" version="1.0">
	<title>logo</title>
	<defs>
		<g id="svg_1"/>
		<clipPath id="b9b5a7a46d">
			<path d="m279.97086,107.77349l19.5,0l0,19.5l-19.5,0l0,-19.5zm0,0" clip-rule="nonzero" id="svg_2"/>
		</clipPath>
	</defs>
	<g>
		<title>Logo DEMOLIDORA SOLON</title>
		<g id="svg_71">
			<g fill="#ff1414" id="svg_6">
				<g id="svg_7">
					<g id="svg_8">
						<path d="m21.60089,130.07689c-6.86328,0 -12.07812,-1.37109 -15.64453,-4.11328c-3.57031,-2.74219 -5.35547,-6.76562 -5.35547,-12.07422l0,-15.57031l34.34375,0l0,6.05078c0,2.14063 0.32813,3.69141 0.98438,4.65625c0.65234,0.96485 1.70703,1.44922 3.15234,1.44922c1.48438,0 2.5625,-0.51953 3.23438,-1.55469c0.67187,-1.03125 1.00781,-2.73828 1.00781,-5.11718c0,-2.69141 -0.32031,-4.57032 -0.95703,-5.64063c-0.63672,-1.06641 -2.23047,-2.12109 -4.78516,-3.15234l-23.27344,-9.41407c-5.34375,-2.17187 -8.96484,-4.51953 -10.86328,-7.03515c-1.89453,-2.51563 -2.84375,-5.96485 -2.84375,-10.34375l0,-9.20703c0,-5.27735 1.78516,-9.27344 5.35547,-12c3.56641,-2.72266 8.78125,-4.08594 15.64453,-4.08594l34.65235,0c6.86328,0 12.07031,1.36328 15.62109,4.08594c3.55078,2.72656 5.32813,6.72265 5.32813,12l0,10.1875l-34.08594,0l0,-1.08594c0,-1.89453 -0.3711,-3.33594 -1.11328,-4.31641c-0.73828,-0.98437 -1.81641,-1.47656 -3.23047,-1.47656c-1.20703,0 -2.17969,0.38281 -2.92188,1.14063c-0.74218,0.75781 -1.11328,1.77343 -1.11328,3.05078c0,1.24218 0.33594,2.25 1.00781,3.02734c0.67188,0.77344 2.35547,1.71484 5.04297,2.81641l27.10157,11.42968c3.44921,1.48438 5.86328,3.5625 7.24218,6.23438c1.37891,2.67187 2.07032,6.71484 2.07032,12.12891l0,9.51562c0,6.3125 -1.69922,10.95703 -5.09375,13.94141c-3.39844,2.98047 -8.6836,4.47265 -15.85547,4.47265l-34.65235,0zm0,0" id="svg_9"/>
					</g>
				</g>
			</g>
			<g fill="#ff1414" id="svg_10">
				<g id="svg_11">
					<g id="svg_12">
						<path d="m108.79465,80.01049l0,31.44531c0,1.75781 0.28516,3.0625 0.85156,3.90625c0.57031,0.84375 1.44141,1.26562 2.61328,1.26562c1.24219,0 2.13672,-0.40234 2.6875,-1.21484c0.55469,-0.80859 0.82813,-2.12891 0.82813,-3.95703l0,-31.44531c0,-1.79297 -0.28516,-3.11328 -0.85156,-3.95703c-0.57032,-0.84375 -1.45704,-1.26954 -2.66407,-1.26954c-1.20703,0 -2.08593,0.41407 -2.63672,1.24219c-0.55468,0.82813 -0.82812,2.15625 -0.82812,3.98438zm-25.34375,-2.89844c0,-5.79297 1.22266,-9.81641 3.67187,-12.07422c2.44922,-2.26172 6.74219,-3.39062 12.87891,-3.39062l24.56641,0c6.17187,0 10.49218,1.14843 12.95703,3.4414c2.46484,2.29297 3.69922,6.30078 3.69922,12.02344l0,37.08594c0,5.75781 -1.23438,9.77343 -3.69922,12.05078c-2.46485,2.27734 -6.78516,3.41406 -12.95703,3.41406l-24.56641,0c-6.13672,0 -10.42969,-1.12109 -12.87891,-3.36328c-2.44921,-2.23828 -3.67187,-6.27344 -3.67187,-12.10156l0,-37.08594zm0,0" id="svg_13"/>
					</g>
				</g>
			</g>
			<g fill="#ff1414" id="svg_14">
				<g id="svg_15">
					<g id="svg_16">
						<path d="m148.09322,43.44408l24.98437,0l0,86.01172l-24.98437,0l0,-86.01172zm0,0" id="svg_17"/>
					</g>
				</g>
			</g>
			<g fill="#ff1414" id="svg_18">
				<g id="svg_19">
					<g id="svg_20">
						<path d="m205.29588,80.01049l0,31.44531c0,1.75781 0.28516,3.0625 0.85156,3.90625c0.57031,0.84375 1.44141,1.26562 2.61328,1.26562c1.24219,0 2.13672,-0.40234 2.6875,-1.21484c0.55469,-0.80859 0.82813,-2.12891 0.82813,-3.95703l0,-31.44531c0,-1.79297 -0.28516,-3.11328 -0.85156,-3.95703c-0.57032,-0.84375 -1.45704,-1.26954 -2.66407,-1.26954c-1.20703,0 -2.08593,0.41407 -2.63672,1.24219c-0.55468,0.82813 -0.82812,2.15625 -0.82812,3.98438zm-25.34375,-2.89844c0,-5.79297 1.22266,-9.81641 3.67187,-12.07422c2.44922,-2.26172 6.74219,-3.39062 12.87891,-3.39062l24.56641,0c6.17187,0 10.49218,1.14843 12.95703,3.4414c2.46484,2.29297 3.69922,6.30078 3.69922,12.02344l0,37.08594c0,5.75781 -1.23438,9.77343 -3.69922,12.05078c-2.46485,2.27734 -6.78516,3.41406 -12.95703,3.41406l-24.56641,0c-6.13672,0 -10.42969,-1.12109 -12.87891,-3.36328c-2.44921,-2.23828 -3.67187,-6.27344 -3.67187,-12.10156l0,-37.08594zm0,0" id="svg_21"/>
					</g>
				</g>
			</g>
			<g fill="#ff1414" id="svg_22">
				<g id="svg_23">
					<g id="svg_24">
						<path d="m244.49289,129.4558l0,-67.60156l24.25781,0l0,4.24218c2.51562,-1.58593 5.00781,-2.75781 7.47265,-3.51562c2.46485,-0.76172 5.09375,-1.14063 7.88672,-1.14063c5.65625,0 9.96485,1.6836 12.92969,5.04297c2.96875,3.36328 4.44922,8.25 4.44922,14.66407l0,48.30859l-25.03125,0l0,-47.11719c0,-1.79297 -0.28516,-3.11328 -0.85547,-3.95703c-0.57031,-0.84766 -1.4375,-1.26953 -2.61328,-1.26953c-1.23828,0 -2.13672,0.41406 -2.6875,1.24219c-0.55078,0.82812 -0.82813,2.15625 -0.82813,3.98437l0,47.11719l-24.98046,0zm0,0" id="svg_25"/>
					</g>
				</g>
			</g>
			<g fill="#000000" id="svg_26">
				<g id="svg_27">
					<g id="svg_28">
						<path d="m29.94074,16.45435c0,3.15625 -0.62109,5.91406 -1.85937,8.26562c-1.23047,2.35547 -2.98047,4.15625 -5.25,5.40625c-2.26172,1.24219 -4.85547,1.85938 -7.78125,1.85938l-12.39063,0l0,-30.60938l11.07813,0c5.15625,0 9.14453,1.30469 11.96875,3.90625c2.82031,2.59375 4.23437,6.32032 4.23437,11.17188zm-6.4375,0c0,-3.28906 -0.85547,-5.80078 -2.5625,-7.53125c-1.71094,-1.72656 -4.15234,-2.59375 -7.32812,-2.59375l-4.53125,0l0,20.70312l5.42187,0c2.75,0 4.9375,-0.94531 6.5625,-2.84375c1.625,-1.89453 2.4375,-4.47265 2.4375,-7.73437zm0,0" id="svg_29"/>
					</g>
				</g>
			</g>
			<g fill="#000000" id="svg_30">
				<g id="svg_31">
					<g id="svg_32">
						<path d="m34.77503,31.9856l0,-30.60938l24.07813,0l0,4.95313l-17.65625,0l0,7.6875l16.32812,0l0,4.95312l-16.32812,0l0,8.0625l18.54687,0l0,4.95313l-24.96875,0zm0,0" id="svg_33"/>
					</g>
				</g>
			</g>
			<g fill="#000000" id="svg_34">
				<g id="svg_35">
					<g id="svg_36">
						<path d="m89.85873,31.9856l0,-18.54688c0,-0.41406 0,-0.83203 0,-1.25c0.00781,-0.42578 0.08203,-2.23437 0.21875,-5.42187c-1.03125,3.89844 -1.79297,6.60937 -2.28125,8.14062l-5.51563,17.07813l-4.5625,0l-5.51562,-17.07813l-2.32813,-8.14062c0.17578,3.36719 0.26563,5.58984 0.26563,6.67187l0,18.54688l-5.70313,0l0,-30.60938l8.59375,0l5.46875,17.125l0.46875,1.64063l1.04688,4.10937l1.375,-4.90625l5.625,-17.96875l8.53125,0l0,30.60938l-5.6875,0zm0,0" id="svg_37"/>
					</g>
				</g>
			</g>
			<g fill="#000000" id="svg_38">
				<g id="svg_39">
					<g id="svg_40">
						<path d="m131.24718,16.5481c0,3.17969 -0.63282,5.98047 -1.89063,8.40625c-1.26172,2.41797 -3.0625,4.26562 -5.40625,5.54687c-2.34375,1.28125 -5.08594,1.92188 -8.21875,1.92188c-4.80469,0 -8.57031,-1.41406 -11.29687,-4.25c-2.73047,-2.83203 -4.09375,-6.70703 -4.09375,-11.625c0,-4.91406 1.35937,-8.75 4.07812,-11.5c2.71875,-2.75 6.50391,-4.125 11.35938,-4.125c4.85156,0 8.64453,1.39062 11.375,4.17187c2.72656,2.78125 4.09375,6.60157 4.09375,11.45313zm-6.53125,0c0,-3.30078 -0.78907,-5.89063 -2.35938,-7.76563c-1.5625,-1.875 -3.75781,-2.8125 -6.57812,-2.8125c-2.86719,0 -5.07813,0.9336 -6.64063,2.79688c-1.5625,1.85547 -2.34375,4.44922 -2.34375,7.78125c0,3.35547 0.79688,6 2.39063,7.9375c1.60156,1.92969 3.78515,2.89062 6.54687,2.89062c2.875,0 5.08594,-0.9375 6.64063,-2.8125c1.5625,-1.88281 2.34375,-4.55468 2.34375,-8.01562zm0,0" id="svg_41"/>
					</g>
				</g>
			</g>
			<g fill="#000000" id="svg_42">
				<g id="svg_43">
					<g id="svg_44">
						<path d="m136.07254,31.9856l0,-30.60938l6.42188,0l0,25.65625l16.40625,0l0,4.95313l-22.82813,0zm0,0" id="svg_45"/>
					</g>
				</g>
			</g>
			<g fill="#000000" id="svg_46">
				<g id="svg_47">
					<g id="svg_48">
						<path d="m163.2372,31.9856l0,-30.60938l6.42188,0l0,30.60938l-6.42188,0zm0,0" id="svg_49"/>
					</g>
				</g>
			</g>
			<g fill="#000000" id="svg_50">
				<g id="svg_51">
					<g id="svg_52">
						<path d="m202.87393,16.45435c0,3.15625 -0.62109,5.91406 -1.85937,8.26562c-1.23047,2.35547 -2.98047,4.15625 -5.25,5.40625c-2.26172,1.24219 -4.85547,1.85938 -7.78125,1.85938l-12.39063,0l0,-30.60938l11.07813,0c5.15625,0 9.14453,1.30469 11.96875,3.90625c2.82031,2.59375 4.23437,6.32032 4.23437,11.17188zm-6.4375,0c0,-3.28906 -0.85547,-5.80078 -2.5625,-7.53125c-1.71094,-1.72656 -4.15234,-2.59375 -7.32812,-2.59375l-4.53125,0l0,20.70312l5.42187,0c2.75,0 4.9375,-0.94531 6.5625,-2.84375c1.625,-1.89453 2.4375,-4.47265 2.4375,-7.73437zm0,0" id="svg_53"/>
					</g>
				</g>
			</g>
			<g fill="#000000" id="svg_54">
				<g id="svg_55">
					<g id="svg_56">
						<path d="m237.47385,16.5481c0,3.17969 -0.63282,5.98047 -1.89063,8.40625c-1.26172,2.41797 -3.0625,4.26562 -5.40625,5.54687c-2.34375,1.28125 -5.08594,1.92188 -8.21875,1.92188c-4.80469,0 -8.57031,-1.41406 -11.29687,-4.25c-2.73047,-2.83203 -4.09375,-6.70703 -4.09375,-11.625c0,-4.91406 1.35937,-8.75 4.07812,-11.5c2.71875,-2.75 6.50391,-4.125 11.35938,-4.125c4.85156,0 8.64453,1.39062 11.375,4.17187c2.72656,2.78125 4.09375,6.60157 4.09375,11.45313zm-6.53125,0c0,-3.30078 -0.78907,-5.89063 -2.35938,-7.76563c-1.5625,-1.875 -3.75781,-2.8125 -6.57812,-2.8125c-2.86719,0 -5.07813,0.9336 -6.64063,2.79688c-1.5625,1.85547 -2.34375,4.44922 -2.34375,7.78125c0,3.35547 0.79688,6 2.39063,7.9375c1.60156,1.92969 3.78515,2.89062 6.54687,2.89062c2.875,0 5.08594,-0.9375 6.64063,-2.8125c1.5625,-1.88281 2.34375,-4.55468 2.34375,-8.01562zm0,0" id="svg_57"/>
					</g>
				</g>
			</g>
			<g fill="#000000" id="svg_58">
				<g id="svg_59">
					<g id="svg_60">
						<path d="m263.33044,31.9856l-7.09375,-11.625l-7.51562,0l0,11.625l-6.42188,0l0,-30.60938l15.29688,0c3.64453,0 6.45703,0.78907 8.4375,2.35938c1.98828,1.57422 2.98437,3.82812 2.98437,6.76562c0,2.14844 -0.60937,4 -1.82812,5.5625c-1.21094,1.55469 -2.85157,2.57422 -4.92188,3.0625l8.28125,12.85938l-7.21875,0zm-0.76562,-21.21875c0,-2.9375 -1.88282,-4.40625 -5.64063,-4.40625l-8.20312,0l0,9.03125l8.375,0c1.80078,0 3.16015,-0.40625 4.07812,-1.21875c0.92578,-0.8125 1.39063,-1.94531 1.39063,-3.40625zm0,0" id="svg_61"/>
					</g>
				</g>
			</g>
			<g fill="#000000" id="svg_62">
				<g id="svg_63">
					<g id="svg_64">
						<path d="m296.05536,31.9856l-2.71875,-7.8125l-11.65625,0l-2.71875,7.8125l-6.40625,0l11.15625,-30.60938l7.5625,0l11.125,30.60938l-6.34375,0zm-8.5625,-25.89063l-0.125,0.48438c-0.14844,0.52344 -0.32422,1.11719 -0.53125,1.78125c-0.19922,0.65625 -1.4375,4.32031 -3.71875,10.98437l8.79687,0l-3.03125,-8.79687l-0.92187,-2.95313l-0.46875,-1.5zm0,0" id="svg_65"/>
					</g>
				</g>
			</g>
			<g clip-path="url(#b9b5a7a46d)" id="svg_69">
				<path fill="#ffffff" d="m289.72086,107.77349c-5.375,0 -9.75,4.37891 -9.75,9.75c0,5.375 4.375,9.75 9.75,9.75c5.37109,0 9.75,-4.375 9.75,-9.75c0,-5.37109 -4.37891,-9.75 -9.75,-9.75zm0,1.5c4.5625,0 8.25,3.6875 8.25,8.25c0,4.56641 -3.6875,8.25 -8.25,8.25c-4.56641,0 -8.25,-3.68359 -8.25,-8.25c0,-4.5625 3.68359,-8.25 8.25,-8.25zm-3.75,3l0,10.5l1.5,0l0,-3l1.875,0l2.21484,3l1.86328,0l-2.40234,-3.24609c1.42188,-0.53907 2.44922,-1.89844 2.44922,-3.50391c0,-2.0625 -1.6875,-3.75 -3.75,-3.75l-3.75,0zm1.5,1.5l2.25,0c1.25391,0 2.25,0.99609 2.25,2.25c0,1.25391 -0.99609,2.25 -2.25,2.25l-2.25,0l0,-4.5zm0,0" fill-rule="nonzero" id="svg_70"/>
			</g>
		</g>
	</g>
</svg>
